<svg width="194" height="206" viewBox="0 0 194 206" fill="none" xmlns="http://www.w3.org/2000/svg">
<path d="M97.6254 205.253L77.3221 170.086L117.929 170.086L97.6254 205.253Z" fill="#2FC18C"/>
<g filter="url(#filter0_di_10_366)">
<ellipse cx="97.1073" cy="94.3811" rx="88.8927" ry="89.3811" fill="#3C1B7A"/>
<path d="M97.1073 186.081C147.494 186.081 188.319 145.014 188.319 94.3811C188.319 43.7486 147.494 2.68106 97.1073 2.68106C46.7205 2.68106 5.89566 43.7486 5.89566 94.3811C5.89566 145.014 46.7205 186.081 97.1073 186.081Z" stroke="#2FC18C" stroke-width="4.63788"/>
</g>
<path d="M91.9859 78.1985L103.862 78.2526L103.809 89.7699L91.9334 89.7158L91.9859 78.1985ZM77.5706 49.4386C77.9239 41.8681 80.5918 36.5134 85.5745 33.3744C88.7187 31.3695 92.5757 30.3775 97.1454 30.3983C103.15 30.4256 108.125 31.883 112.07 34.7704C116.043 37.6579 118.016 41.9179 117.99 47.5504C117.974 51.0042 117.098 53.9095 115.36 56.2662C114.344 57.6963 112.396 59.5207 109.517 61.7393L106.677 63.9183C105.131 65.1068 104.101 66.497 103.589 68.0888C103.266 69.0969 103.086 70.6637 103.05 72.789L92.2897 72.74C92.4696 68.2507 92.9088 65.1574 93.6073 63.4602C94.306 61.7364 96.095 59.7652 98.9746 57.5466L101.894 55.2882C102.854 54.5753 103.628 53.795 104.216 52.9475C105.286 51.4911 105.824 49.8861 105.832 48.1326C105.842 46.1134 105.252 44.2775 104.064 42.6248C102.903 40.9457 100.754 40.099 97.6194 40.0847C94.5375 40.0707 92.341 41.0836 91.0298 43.1234C89.7452 45.1633 89.0979 47.2859 89.0879 49.4911L77.5706 49.4386Z" fill="#2FC18C"/>
<path d="M125.009 83.132L132.446 87.4711L128.245 94.6728L120.807 90.3337L125.009 83.132ZM126.368 59.8755C129.33 55.2574 132.943 52.8674 137.208 52.7058C139.908 52.5886 142.689 53.3649 145.551 55.0345C149.311 57.2283 151.907 59.9455 153.339 63.186C154.788 66.4363 154.485 69.8224 152.43 73.3443C151.17 75.504 149.568 77.0076 147.624 77.8552C146.468 78.3834 144.585 78.821 141.974 79.1681L139.402 79.5049C138.001 79.6895 136.852 80.1879 135.954 81.0002C135.386 81.515 134.706 82.4321 133.914 83.7514L127.176 79.82C128.914 77.0707 130.309 75.2906 131.362 74.4798C132.425 73.6523 134.261 73.0651 136.872 72.718L139.523 72.3605C140.384 72.2614 141.152 72.0528 141.828 71.7348C143.027 71.2094 143.946 70.3984 144.586 69.302C145.323 68.0394 145.617 66.6747 145.469 65.2079C145.348 63.7342 144.305 62.4246 142.342 61.2792C140.412 60.1531 138.666 59.9919 137.105 60.7954C135.56 61.6087 134.385 62.7047 133.581 64.0836L126.368 59.8755Z" fill="#EA5D5D"/>
<path d="M60.2911 87.6301L68.6181 85.4394L70.7393 93.5029L62.4123 95.6936L60.2911 87.6301ZM44.8071 70.2244C43.6361 64.8644 44.5012 60.6194 47.4025 57.4894C49.2288 55.4974 51.744 54.08 54.9482 53.237C59.1583 52.1294 62.9155 52.215 66.2196 53.4936C69.5424 54.7674 71.7225 57.376 72.7598 61.3193C73.396 63.7374 73.3263 65.9335 72.551 67.9075C72.1073 69.0982 71.085 70.7394 69.4842 72.8312L67.9039 74.8877C67.0436 76.009 66.5833 77.1742 66.5229 78.3834C66.4853 79.149 66.6529 80.2783 67.0258 81.7713L59.4811 83.7562C58.7659 80.5832 58.4939 78.3378 58.6651 77.0199C58.8314 75.6835 59.715 73.9693 61.3159 71.8776L62.9373 69.7506C63.4759 69.0719 63.8717 68.3811 64.125 67.678C64.601 66.4589 64.6776 65.2356 64.3546 64.0079C63.9827 62.5942 63.2259 61.4211 62.0843 60.4883C60.9563 59.5321 59.2932 59.3432 57.095 59.9215C54.9341 60.49 53.5856 61.6104 53.0496 63.2828C52.5322 64.9503 52.4765 66.556 52.8827 68.0999L44.8071 70.2244Z" fill="#F9BA18"/>
<path d="M48.8687 110.444H39.4653L40.3262 108.302V139.691H36.5737V108.302L37.6332 110.444H28.0532V107.133H48.8687V110.444ZM57.4688 139.691V107.133H68.7705C71.7578 107.133 74.0314 107.839 75.5913 109.252C77.1511 110.664 77.9311 112.82 77.9311 115.719C77.9311 117.456 77.6 118.935 76.9378 120.156C76.2903 121.363 75.503 122.297 74.5759 122.959C73.6635 123.622 72.8173 123.997 72.0374 124.085C72.8321 124.144 73.612 124.365 74.3772 124.747C75.1572 125.115 75.8046 125.689 76.3197 126.469C76.8348 127.249 77.0923 128.294 77.0923 129.604C77.0923 130.81 77.0923 132.046 77.0923 133.312C77.0923 134.563 77.0923 135.799 77.0923 137.02C77.0923 137.653 77.1438 138.22 77.2468 138.72C77.3498 139.206 77.4675 139.529 77.6 139.691H73.8033C73.7003 139.5 73.5973 139.169 73.4943 138.698C73.3913 138.227 73.3398 137.668 73.3398 137.02C73.3398 135.887 73.3398 134.732 73.3398 133.555C73.3398 132.377 73.3398 131.215 73.3398 130.067C73.3398 128.625 72.8836 127.551 71.9712 126.844C71.0588 126.138 69.7712 125.785 68.1083 125.785H60.0956L61.1551 124.35V139.691H57.4688ZM61.1551 124.041L60.0956 122.474H68.1524C69.2414 122.474 70.2274 122.209 71.1103 121.679C72.008 121.135 72.7217 120.384 73.2515 119.428C73.7959 118.456 74.0682 117.323 74.0682 116.028C74.0682 114.012 73.5384 112.577 72.4789 111.724C71.4193 110.87 69.8889 110.444 67.8876 110.444H60.0073L61.1551 108.81V124.041ZM87.6314 139.691V107.133H91.3398V139.691H87.6314ZM108.52 139.868L99.6685 107.133H103.796L111.39 136.91H111.125L118.63 107.133H122.78L114.016 139.868H108.52ZM131.092 139.691V107.133H134.801V139.691H131.092ZM143.216 139.691L152.178 107.044H158.049L166.945 139.691H163.06L155.091 109.494H155.135L147.101 139.691H143.216ZM147.851 131.06V127.749H162.376V131.06H147.851Z" fill="white"/>
<defs>
<filter id="filter0_di_10_366" x="0.48474" y="0.362122" width="193.245" height="194.222" filterUnits="userSpaceOnUse" color-interpolation-filters="sRGB">
<feFlood flood-opacity="0" result="BackgroundImageFix"/>
<feColorMatrix in="SourceAlpha" type="matrix" values="0 0 0 0 0 0 0 0 0 0 0 0 0 0 0 0 0 0 127 0" result="hardAlpha"/>
<feOffset dy="3.09192"/>
<feGaussianBlur stdDeviation="1.54596"/>
<feComposite in2="hardAlpha" operator="out"/>
<feColorMatrix type="matrix" values="0 0 0 0 0 0 0 0 0 0 0 0 0 0 0 0 0 0 0.25 0"/>
<feBlend mode="normal" in2="BackgroundImageFix" result="effect1_dropShadow_10_366"/>
<feBlend mode="normal" in="SourceGraphic" in2="effect1_dropShadow_10_366" result="shape"/>
<feColorMatrix in="SourceAlpha" type="matrix" values="0 0 0 0 0 0 0 0 0 0 0 0 0 0 0 0 0 0 127 0" result="hardAlpha"/>
<feOffset dy="3.09192"/>
<feGaussianBlur stdDeviation="13.5272"/>
<feComposite in2="hardAlpha" operator="arithmetic" k2="-1" k3="1"/>
<feColorMatrix type="matrix" values="0 0 0 0 0.121493 0 0 0 0 0.0553125 0 0 0 0 0.245833 0 0 0 1 0"/>
<feBlend mode="normal" in2="shape" result="effect2_innerShadow_10_366"/>
</filter>
</defs>
</svg>
